======================= Dan Balan - Chica Bomb HD 720p ===========================

Format                           : MPEG-4
Format profile                   : Base Media
Codec ID                         : isom
File size                        : 126 MiB
Duration                         : 3mn 34s
Overall bit rate                 : 4 941 Kbps

Video
ID                               : 1
Format                           : MPEG-4 Visual
Format profile                   : Simple@L1
Format settings, BVOP            : No
Format settings, QPel            : No
Format settings, GMC             : No warppoints
Format settings, Matrix          : Default (H.263)
Codec ID                         : 20
Duration                         : 3mn 34s
Bit rate mode                    : Variable
Bit rate                         : 4 874 Kbps
Width                            : 1 280 pixels
Height                           : 768 pixels
Display aspect ratio             : 1.667
Frame rate mode                  : Constant
Frame rate                       : 29.970 fps
Color space                      : YUV
Chroma subsampling               : 4:2:0
Bit depth                        : 8 bits
Scan type                        : Progressive
Bits/(Pixel*Frame)               : 0.165
Stream size                      : 124 MiB (99%)
Writing library                  : Lavc52.37.0

Audio
ID                               : 2
Format                           : AAC
Format/Info                      : Advanced Audio Codec
Format version                   : Version 4
Format profile                   : LC
Format settings, SBR             : No
Codec ID                         : 40
Duration                         : 3mn 33s
Bit rate mode                    : Variable
Bit rate                         : 62.7 Kbps
Channel(s)                       : 2 channels
Channel positions                : Front: L R
Sampling rate                    : 44.1 KHz
Stream size                      : 1.60 MiB (1%)

======================= SCREEN SHOTS -========================================

                    http://bayimg.com/PAijAAadM
                    http://bayimg.com/PAIJcAADM
                    http://bayimg.com/PAIjGAADm
                    http://bayimg.com/PAijhAAdm
                    http://bayimg.com/pAIjIAaDM

============================ FOLLOW ME ON TWEETER AND FACEBOOK =================

           http :///#!/ haunting_summer

  http: // www. facebook. com/ pages/ HaUnTiNgSuMMeR-ToRrEnTs/ 192812490771363

=================================================================================

--------------- PLZ RATE +/- THE QUALITY N COMMENT IF POSSIBLE -----------------
                    